<svg xmlns="http://www.w3.org/2000/svg" style="display:none">
  <symbol id="prev" viewBox="0 0 16 16"><path d="M3.5 3.5a.5.5 0 0 1 1 0v4l7-4v8l-7-4v4a.5.5 0 0 1-1 0v-8z"/></symbol>
  <symbol id="next" viewBox="0 0 16 16"><path d="M12.5 3.5a.5.5 0 0 0-1 0v4l-7-4v8l7-4v4a.5.5 0 0 0 1 0v-8z"/></symbol>
  <symbol id="play" viewBox="0 0 16 16"><path d="M6 3.5a.5.5 0 0 1 .5.5v8a.5.5 0 0 1-1 0V4a.5.5 0 0 1 .5-.5zm3.5 0a.5.5 0 0 1 .5.5v8a.5.5 0 0 1-1 0V4a.5.5 0 0 1 .5-.5z"/></symbol>
  <symbol id="pause" viewBox="0 0 16 16"><path d="M10.804 8 5 4.633v6.734L10.804 8zm.792-.696a.802.802 0 0 1 0 1.392l-6.363 3.692C4.713 12.69 4 12.345 4 11.692V4.308c0-.653.713-.998 1.233-.696l6.363 3.692z"/></symbol>
  <symbol id="lyrics" viewBox="0 0 24 24" fill="none" stroke="currentColor" stroke-width="2"><line x1="8" y1="6" x2="21" y2="6"/><line x1="8" y1="12" x2="21" y2="12"/><line x1="8" y1="18" x2="21" y2="18"/><line x1="3" y1="6" x2="3.01" y2="6"/><line x1="3" y1="12" x2="3.01" y2="12"/><line x1="3" y1="18" x2="3.01" y2="18"/></symbol>
</svg>